<?xml version="1.0" standalone="no"?>
<!DOCTYPE svg PUBLIC "-//W3C//DTD SVG 20010904//EN"
 "http://www.w3.org/TR/2001/REC-SVG-20010904/DTD/svg10.dtd">
<svg version="1.0" xmlns="http://www.w3.org/2000/svg"
 width="300.000000pt" height="300.000000pt" viewBox="0 0 300.000000 300.000000"
 preserveAspectRatio="xMidYMid meet">
<metadata>
Created by potrace 1.10, written by Peter Selinger 2001-2011
</metadata>
<g transform="translate(0.000000,300.000000) scale(0.100000,-0.100000)"
fill="#000000" stroke="none">
<path d="M360 1488 l0 -193 127 2 c108 2 130 5 140 19 26 36 16 39 -97 36
l-110 -3 0 165 0 166 -30 0 -30 0 0 -192z"/>
<path d="M732 1600 c-15 -28 -37 -68 -49 -88 l-22 -37 -1 43 c0 38 -2 42 -25
42 -25 0 -25 -1 -25 -79 l0 -80 -57 -6 c-90 -10 -86 -13 19 -14 84 -1 97 1
102 17 4 9 28 55 55 101 l48 83 72 -131 c56 -102 78 -132 97 -137 14 -4 27 -4
30 -1 3 2 -8 26 -24 53 -15 27 -56 102 -91 167 -73 138 -86 144 -129 67z"/>
<path d="M1020 1480 l0 -170 110 0 110 0 0 26 0 26 -86 -3 -86 -3 1 147 2 147
-26 0 -25 0 0 -170z"/>
<path d="M1300 1480 l0 -170 25 0 25 0 0 170 0 170 -25 0 -25 0 0 -170z"/>
<path d="M1494 1640 c-51 -20 -72 -102 -35 -139 10 -10 48 -28 85 -41 53 -17
67 -27 72 -46 10 -41 -22 -67 -75 -61 -23 3 -56 14 -71 25 -20 15 -30 18 -39
9 -21 -21 -11 -34 38 -56 85 -36 164 -22 189 34 29 62 0 104 -93 135 -71 24
-93 47 -75 80 16 29 54 35 107 15 38 -15 47 -15 54 -4 14 22 11 26 -31 43 -44
17 -93 20 -126 6z"/>
<path d="M1740 1528 c0 -138 12 -173 69 -203 64 -32 145 -11 181 48 17 27 20
51 20 155 0 121 0 123 -21 120 -21 -3 -22 -8 -20 -95 3 -119 -10 -168 -51
-189 -42 -21 -93 -11 -116 24 -13 20 -17 51 -19 142 -2 107 -4 115 -23 118
-19 3 -20 -2 -20 -120z"/>
<path d="M2110 1481 l0 -171 25 0 c24 0 25 3 25 55 l0 55 48 0 c46 -1 48 -1
80 -55 26 -43 39 -55 58 -55 13 0 24 2 24 5 0 3 -16 29 -35 58 -38 57 -42 67
-22 67 40 0 69 87 47 139 -20 49 -53 63 -157 69 l-93 5 0 -172z m196 98 c25
-28 22 -78 -5 -101 -17 -13 -40 -18 -82 -18 l-59 0 0 73 0 72 64 -3 c48 -3 69
-9 82 -23z"/>
<path d="M2450 1480 l0 -170 120 0 120 0 0 26 0 26 -96 -3 -96 -3 -2 52 -1 52
88 0 c80 0 87 2 87 20 0 18 -7 20 -85 20 l-85 0 0 45 c0 25 1 48 3 51 1 4 44
6 95 5 l92 -2 0 25 0 26 -120 0 -120 0 0 -170z"/>
<path d="M740 1420 c0 -11 7 -20 15 -20 8 0 15 9 15 20 0 11 -7 20 -15 20 -8
0 -15 -9 -15 -20z"/>
<path d="M782 1423 c4 -21 33 -25 33 -3 0 8 -8 16 -18 18 -14 3 -18 -1 -15
-15z"/>
<path d="M780 1375 c0 -8 9 -15 20 -15 11 0 20 7 20 15 0 8 -9 15 -20 15 -11
0 -20 -7 -20 -15z"/>
</g>
</svg>
