<?xml version="1.0" standalone="no"?>
<!DOCTYPE svg PUBLIC "-//W3C//DTD SVG 20010904//EN"
 "http://www.w3.org/TR/2001/REC-SVG-20010904/DTD/svg10.dtd">
<svg version="1.0" xmlns="http://www.w3.org/2000/svg"
 width="1080.000000pt" height="1080.000000pt" viewBox="0 0 1080.000000 1080.000000"
 preserveAspectRatio="xMidYMid meet">

<g transform="translate(0.000000,1080.000000) scale(0.100000,-0.100000)"
fill="#000000" stroke="none">
<path d="M5949 8128 c-303 -484 -424 -694 -647 -1124 -269 -521 -451 -836
-749 -1300 -50 -77 -124 -196 -164 -264 l-74 -124 -6 544 c-3 300 -7 636 -8
748 l-1 202 -453 0 -454 0 -13 -652 c-7 -364 -11 -993 -9 -1420 l4 -767 -47
-10 c-68 -15 -551 -94 -888 -145 -533 -82 -630 -96 -1125 -167 -269 -38 -494
-71 -500 -73 -24 -8 937 -16 2165 -18 l1335 -3 54 100 c57 106 221 397 456
810 713 1251 1197 2111 1375 2440 138 256 143 265 156 265 28 0 241 -364 594
-1015 56 -104 124 -228 150 -275 26 -47 211 -384 410 -750 830 -1521 1221
-2224 1355 -2435 96 -152 262 -237 515 -264 101 -11 570 -35 575 -29 2 2 -70
138 -159 303 -89 165 -240 446 -336 625 -306 573 -904 1679 -1005 1860 -54 96
-255 468 -447 825 -193 358 -376 697 -408 755 -32 58 -182 332 -333 610 -151
278 -336 613 -410 745 l-135 240 -310 3 -310 2 -153 -242z"/>
<path d="M5710 4280 l0 -260 260 0 260 0 0 260 0 260 -260 0 -260 0 0 -260z"/>
<path d="M6490 4280 l0 -260 265 0 265 0 0 260 0 260 -265 0 -265 0 0 -260z"/>
<path d="M5710 3500 l0 -260 260 0 260 0 0 260 0 260 -260 0 -260 0 0 -260z"/>
<path d="M6493 3638 c4 -66 7 -183 7 -260 l0 -138 258 0 259 0 6 152 c4 83 7
200 7 260 l0 108 -272 0 -271 0 6 -122z"/>
</g>
</svg>
