<?xml version="1.0" standalone="no"?>
<!DOCTYPE svg PUBLIC "-//W3C//DTD SVG 20010904//EN"
 "http://www.w3.org/TR/2001/REC-SVG-20010904/DTD/svg10.dtd">
<svg version="1.0" xmlns="http://www.w3.org/2000/svg"
 width="2048.000000pt" height="2048.000000pt" viewBox="0 0 2048.000000 2048.000000"
 preserveAspectRatio="xMidYMid meet">

<g transform="translate(0.000000,2048.000000) scale(0.100000,-0.100000)"
fill="#000000" stroke="none">
<path d="M2450 10165 l0 -1315 870 0 869 0 84 143 c114 194 137 235 137 241 0
3 -348 7 -772 8 l-773 3 -3 1118 -2 1117 -205 0 -205 0 0 -1315z"/>
<path d="M5138 11158 c-108 -171 -164 -268 -236 -409 -89 -174 -189 -350 -267
-469 -34 -52 -75 -117 -91 -145 l-29 -50 -3 288 -2 287 -174 0 -174 0 -7 -302
c-4 -167 -5 -412 -3 -545 l3 -243 -25 -5 c-111 -22 -631 -101 -975 -148 -16
-2 283 -5 665 -5 l695 -2 34 63 c19 34 114 202 211 372 227 398 410 723 478
850 29 55 56 102 58 104 10 10 77 -105 299 -514 496 -911 660 -1204 687 -1232
55 -57 116 -75 267 -81 l134 -5 -40 74 c-22 41 -126 234 -230 429 -105 195
-226 420 -270 500 -101 182 -114 206 -323 595 -95 176 -220 404 -277 508
l-105 187 -118 0 -118 0 -64 -102z"/>
<path d="M10374 11246 c-100 -19 -136 -32 -237 -84 -185 -94 -290 -250 -317
-468 -24 -191 41 -373 174 -489 97 -85 201 -128 591 -245 198 -60 334 -121
389 -176 45 -45 82 -120 91 -185 8 -57 -14 -153 -49 -207 -102 -162 -388 -214
-692 -126 -151 43 -283 113 -417 221 -38 30 -70 53 -72 51 -2 -1 -37 -54 -79
-117 -88 -132 -91 -116 29 -205 111 -84 240 -152 370 -195 162 -53 289 -74
455 -74 182 1 298 25 435 92 215 105 328 275 342 511 15 266 -125 474 -397
591 -49 21 -198 72 -332 114 -357 111 -430 151 -485 263 -24 49 -28 69 -28
142 0 75 4 91 30 139 36 66 91 114 164 143 50 20 73 23 206 23 134 0 161 -3
248 -28 106 -30 277 -100 361 -147 l52 -30 64 131 c55 109 62 131 50 140 -131
87 -288 156 -441 195 -129 32 -388 42 -505 20z"/>
<path d="M6972 10103 l3 -1128 753 -3 752 -2 0 140 0 140 -600 0 -600 0 0 990
0 990 -155 0 -155 0 2 -1127z"/>
<path d="M8890 10105 l0 -1125 150 0 150 0 0 1125 0 1125 -150 0 -150 0 0
-1125z"/>
<path d="M11873 10483 c4 -804 4 -797 58 -963 89 -271 298 -467 572 -539 254
-66 528 -44 744 59 271 131 432 385 472 743 7 59 11 357 11 772 l0 675 -155 0
-155 0 0 -682 c0 -742 -4 -808 -55 -944 -52 -140 -143 -242 -270 -305 -245
-121 -551 -81 -729 95 -75 75 -119 156 -154 283 l-26 98 -4 728 -3 727 -155 0
-155 0 4 -747z"/>
<path d="M14420 10106 l0 -1126 155 0 155 0 0 360 0 360 322 -2 321 -3 163
-257 c89 -141 193 -302 231 -358 l68 -102 178 -1 c131 -2 177 1 177 10 0 6 -4
14 -10 18 -5 3 -74 108 -153 233 -80 125 -188 294 -240 376 l-96 149 97 48
c263 129 405 382 389 693 -7 137 -24 204 -84 326 -38 77 -61 109 -127 176 -66
66 -99 90 -176 128 -185 91 -177 90 -812 94 l-558 3 0 -1125z m1083 829 c225
-47 367 -230 367 -473 0 -224 -138 -406 -351 -463 -28 -8 -177 -13 -416 -16
l-373 -5 0 486 0 486 353 0 c267 0 368 -4 420 -15z"/>
<path d="M16740 10100 l0 -1130 815 0 815 0 0 143 0 142 -662 0 -663 0 -3 363
-2 362 542 1 c299 1 550 2 558 3 8 2 25 3 36 4 21 2 21 5 17 135 l-3 132 -575
3 -575 2 0 345 0 345 645 0 645 0 0 140 0 140 -795 0 -795 0 0 -1130z"/>
<path d="M5050 9690 l0 -100 100 0 100 0 0 100 0 100 -100 0 -100 0 0 -100z"/>
<path d="M5350 9690 l0 -100 103 0 102 0 0 100 0 100 -102 0 -103 0 0 -100z"/>
<path d="M5050 9390 l0 -100 100 0 100 0 0 100 0 100 -100 0 -100 0 0 -100z"/>
<path d="M5353 9390 l2 -100 100 0 100 0 1 100 1 100 -103 0 -103 0 2 -100z"/>
</g>
</svg>
